<?xml version="1.0" encoding="UTF-8"?>
<svg id="_Шар_1" data-name="Шар_1" xmlns="http://www.w3.org/2000/svg" version="1.1" viewBox="0 0 3524.9 531.8">
  <!-- Generator: Adobe Illustrator 29.1.0, SVG Export Plug-In . SVG Version: 2.1.0 Build 142)  -->
  <defs>
    <style>
      .st0 {
        fill: #ea9106;
      }

      .st1 {
        fill: #fff;
      }
    </style>
  </defs>
  <g>
    <g>
      <path class="st1" d="M3480,153.8l-105.2,175.7c-16.4,29.9-32.2,34-50.7,34h-40v-48.1l6,.2c6.7.2,24.5.9,28.9-4.6.3-.3.8-1,.8-2.4s-.3-2.2-.9-3.2l-96.8-151.6h64.9l65.5,104.2,60.9-104.2h66.8Z"/>
      <rect class="st1" x="1174.6" y="153.2" width="58" height="210.9"/>
      <polygon class="st1" points="1868.4 153.2 1868.4 364.1 1810.4 364.1 1810.4 204 1698.5 204 1698.5 364.1 1640.5 364.1 1640.5 153.2 1868.4 153.2"/>
      <path class="st1" d="M2076.4,153.2h-76.1l-109.1,210.9h67.2l30.9-59.7h98.1l30.9,59.7h67.2l-109.1-210.9ZM2015.6,253.7l22.8-44,22.8,44h-45.5Z"/>
      <path class="st1" d="M2358.3,153.2h-150v210.9h58v-59.7h92c35.6,0,64.6-29,64.6-64.6v-22c0-35.6-29-64.6-64.6-64.6ZM2370.4,216.8v24.1c0,7-5.7,12.8-12.8,12.8h-91.3v-49.7h91.3c7,0,12.8,5.7,12.8,12.8Z"/>
      <polygon class="st1" points="2591.7 258 2709.9 362.7 2626.3 362.7 2537.6 284.1 2514.3 284.1 2514.3 364.1 2456.3 364.1 2456.3 153.2 2514.3 153.2 2514.3 233.3 2535.9 233.3 2626.3 153.2 2709.9 153.2 2591.7 258"/>
      <polygon class="st1" points="1496.5 153.2 1496.5 204 1412.5 204 1412.5 364.1 1354.5 364.1 1354.5 204 1270.4 204 1270.4 153.2 1496.5 153.2"/>
      <path class="st1" d="M1120.3,278.2c-1.8-13.6-10.7-25.1-22.9-30.5.4-.4.7-.7,1.1-1.1,8.7-9.3,11.7-24.9,11.3-31.4v-2c0-35.3-21.7-59.9-52.8-59.9h-162.3v210.9h158c5.5,0,10.9-.5,16-1.4,2.8-.5,5.6-1.2,8.3-1.9,8.9-2.6,16.8-6.6,23.4-12,13.3-10.8,20.3-26.1,20.3-44.2v-26.3h-.5ZM952.7,204h93c7.3,0,13.2,5.9,13.2,13.2v2.9c0,7.3-5.9,13.2-13.2,13.2h-93v-29.3ZM1062.8,299.7c0,7.5-6.1,13.7-13.7,13.7h-96.4v-29.3h96.4c7.5,0,13.7,6.1,13.7,13.7v2Z"/>
      <polygon class="st1" points="3210.2 153.2 3210.2 204 3126.1 204 3126.1 364.1 3068.1 364.1 3068.1 204 2984.1 204 2984.1 153.2 3210.2 153.2"/>
      <polygon class="st1" points="2794.2 204 2794.2 233.3 2946.2 233.3 2946.2 284.1 2794.2 284.1 2794.2 313.4 2950.2 313.4 2950.2 364.1 2736.2 364.1 2736.2 153.2 2950.2 153.2 2950.2 204 2794.2 204"/>
      <path class="st1" d="M798.9,231.4v-12.6c0-9.4-7.6-17-17-17h-98.8c-9.4,0-17,7.6-17,17v79.6c0,9.4,7.6,17,17,17h98.8c9.4,0,17-7.6,17-17v-12.6h54.7v14.8c0,34.9-28.4,63.3-63.3,63.3h-115.5c-34.9,0-63.4-28.4-63.4-63.3v-84.2c0-34.9,28.4-63.3,63.4-63.3h115.5c34.9,0,63.3,28.4,63.3,63.3v14.8h-54.7Z"/>
    </g>
    <g>
      <path class="st0" d="M3416,158.8l-63.6,108.8-68.4-108.8h-53c4.9,7.8,67.1,103,92,143.9s1.8,4,1.7,6.1c-.6,13.4-25.7,12.1-35.7,11.7v37.9h35c17.1,0,29.4-5.6,44.6-33.3l102.3-166.4h-55Z"/>
      <rect class="st0" x="1179.6" y="158.2" width="48" height="200.9"/>
      <polygon class="st0" points="1645.5 359.1 1693.5 359.1 1693.5 199 1815.4 199 1815.4 359.1 1863.4 359.1 1863.4 158.2 1645.5 158.2 1645.5 359.1"/>
      <path class="st0" d="M2003.4,158.2l-104,200.9h56l30.9-59.7h104.2l30.9,59.7h56l-104-200.9h-70ZM2007.4,258.7l31-59.9,31,59.9h-62Z"/>
      <path class="st0" d="M2358.3,158.2h-10.7s-134.3,0-134.3,0v200.9h48v-59.7h97c32.9,0,59.6-26.7,59.6-59.6v-22c0-32.9-26.7-59.6-59.6-59.6ZM2375.4,240.9c0,9.8-8,17.8-17.8,17.8h-96.3v-59.7h96.3c9.8,0,17.8,8,17.8,17.8v24.1Z"/>
      <polygon class="st0" points="2696.7 158.2 2628.2 158.2 2537.8 238.3 2509.3 238.3 2509.3 158.2 2461.3 158.2 2461.3 359.1 2509.3 359.1 2509.3 279.1 2539.5 279.1 2628.2 357.7 2696.7 357.7 2587.3 260.7 2584.2 258 2587.3 255.2 2696.7 158.2"/>
      <polygon class="st0" points="1275.4 199 1359.5 199 1359.5 359.1 1407.5 359.1 1407.5 199 1491.5 199 1491.5 158.2 1275.4 158.2 1275.4 199"/>
      <path class="st0" d="M1081.2,249.3c18.8,0,24-26.8,23.5-33.9v-2.2c0-30.3-17.4-54.9-47.8-54.9h-157.3v200.9h153c34.8,0,63-19.8,63-54.6v-21.4h-.2c0-18.8-15.6-34-34.4-34ZM947.7,199h98c10.1,0,18.2,8.1,18.2,18.2v2.9c0,10-8.1,18.2-18.2,18.2h-98v-39.3ZM1067.8,299.7c0,10.3-8.4,18.7-18.7,18.7h-101.4v-39.3h101.4c10.3,0,18.7,8.3,18.7,18.7v2Z"/>
      <polygon class="st0" points="2989.1 199 3073.1 199 3073.1 359.1 3121.1 359.1 3121.1 199 3205.2 199 3205.2 158.2 2989.1 158.2 2989.1 199"/>
      <path class="st0" d="M1072,359.1h0c-1.1,0-2.2,0-3.3,0h3.3Z"/>
      <polygon class="st0" points="2741.2 359.1 2945.2 359.1 2945.2 318.4 2789.2 318.4 2789.2 279.1 2941.2 279.1 2941.2 238.3 2789.2 238.3 2789.2 199 2945.2 199 2945.2 158.2 2741.2 158.2 2741.2 359.1"/>
      <path class="st0" d="M790.2,158.2h-115.5c-32.2,0-58.4,26.1-58.4,58.3v84.2c0,32.2,26.1,58.3,58.4,58.3h115.5c32.2,0,58.3-26.1,58.3-58.3v-9.8h-44.7v7.6c0,12.1-9.8,22-22,22h-98.8c-12.2,0-22-9.9-22-22v-79.6c0-12.1,9.8-22,22-22h98.8c12.1,0,22,9.9,22,22v7.6h44.7v-9.8c0-32.2-26.1-58.3-58.3-58.3Z"/>
    </g>
  </g>
  <g>
    <polygon class="st0" points="481.8 457.8 481.8 310 331.8 457.8 481.8 457.8"/>
    <polygon class="st0" points="331.8 59.6 481.8 207.4 481.8 59.6 331.8 59.6"/>
    <polygon class="st0" points="83.9 186.9 83.9 330.4 155.6 258.7 83.9 186.9"/>
    <polygon class="st0" points="114.3 59.6 83.9 59.6 83.9 136.6 206 258.7 83.9 380.8 83.9 457.8 114.3 457.8 313.5 258.7 114.3 59.6"/>
    <polygon class="st0" points="281.5 59.5 238.8 59.6 164.7 59.6 363.8 258.7 164.7 457.8 238.8 457.7 281.5 457.8 481.8 258.7 281.5 59.5"/>
  </g>
  <g>
    <polygon class="st1" points="488.8 296 487.9 461.6 319.6 462.7 488.8 296"/>
    <polygon class="st1" points="488.5 54.6 488.5 221.1 319.6 54.6 488.5 54.6"/>
    <polygon class="st1" points="165.7 258.7 78.9 342.5 78.9 174.9 165.7 258.7"/>
    <polygon class="st1" points="322.6 258.7 118.4 462.8 78.9 462.7 78.9 378.7 198.9 258.7 78.9 138.7 78.9 54.6 118.4 54.6 322.6 258.7"/>
    <polygon class="st1" points="488.9 258.7 283.6 462.8 238.8 462.7 152.6 462.8 356.8 258.7 152.6 54.5 238.8 54.6 283.6 54.5 285.1 56 488.9 258.7"/>
  </g>
  <g>
    <polygon class="st0" points="482.8 457.8 482.8 310 332.9 457.8 482.8 457.8"/>
    <polygon class="st0" points="332.9 59.6 482.8 207.4 482.8 59.6 332.9 59.6"/>
    <polygon class="st0" points="84.9 186.9 84.9 330.4 156.7 258.7 84.9 186.9"/>
    <polygon class="st0" points="115.4 59.6 84.9 59.6 84.9 136.6 207 258.7 84.9 380.8 84.9 457.8 115.4 457.8 314.5 258.7 115.4 59.6"/>
    <polygon class="st0" points="282.6 59.5 239.8 59.6 165.7 59.6 364.9 258.7 165.7 457.8 239.8 457.7 282.6 457.8 482.8 258.7 282.6 59.5"/>
  </g>
</svg>